<svg width="18" height="16" viewBox="0 0 18 16" fill="none" xmlns="http://www.w3.org/2000/svg">
<path d="M8.99998 15.5C8.46248 15.0233 7.85498 14.5275 7.21248 14H7.20415C4.94165 12.15 2.37748 10.0566 1.24498 7.54829C0.87291 6.74973 0.675732 5.8809 0.666635 4.99996C0.664151 3.7912 1.14895 2.63245 2.01149 1.7856C2.87402 0.938751 4.04147 0.475289 5.24998 0.49996C6.23384 0.501514 7.19651 0.785861 8.02331 1.31913C8.38662 1.55493 8.71533 1.84017 8.99998 2.16663C9.28622 1.84145 9.61502 1.55638 9.97748 1.31913C10.8039 0.785756 11.7664 0.501392 12.75 0.49996C13.9585 0.475289 15.1259 0.938751 15.9885 1.7856C16.851 2.63245 17.3358 3.7912 17.3333 4.99996C17.3248 5.88231 17.1276 6.75262 16.755 7.55246C15.6225 10.0608 13.0591 12.1533 10.7966 14L10.7883 14.0066C10.145 14.5308 9.53831 15.0266 9.00081 15.5066L8.99998 15.5ZM5.24998 2.16663C4.47374 2.15691 3.72504 2.454 3.16665 2.99329C2.62863 3.52176 2.32794 4.24583 2.33324 4.99996C2.34275 5.64204 2.48817 6.27484 2.75998 6.85663C3.29457 7.93888 4.0159 8.91834 4.89081 9.74996C5.71665 10.5833 6.66665 11.39 7.48831 12.0683C7.71581 12.2558 7.94748 12.445 8.17915 12.6341L8.32498 12.7533C8.54748 12.935 8.77748 13.1233 8.99998 13.3083L9.01081 13.2983L9.01581 13.2941H9.02081L9.02831 13.2883H9.03248H9.03664L9.05165 13.2758L9.08581 13.2483L9.09165 13.2433L9.10081 13.2366H9.10581L9.11331 13.23L9.66665 12.7758L9.81165 12.6566C10.0458 12.4658 10.2775 12.2766 10.505 12.0891C11.3266 11.4108 12.2775 10.605 13.1033 9.76746C13.9783 8.93626 14.6997 7.95705 15.2341 6.87496C15.5109 6.28813 15.6584 5.64871 15.6667 4.99996C15.6701 4.24816 15.3696 3.52687 14.8333 2.99996C14.276 2.45823 13.5272 2.1587 12.75 2.16663C11.8016 2.15857 10.8949 2.5561 10.2583 3.25913L8.99998 4.70913L7.74165 3.25913C7.10503 2.5561 6.19838 2.15857 5.24998 2.16663Z" fill="#303030"/>
</svg>
