<svg width="183" height="54" viewBox="0 0 183 54" fill="none" xmlns="http://www.w3.org/2000/svg">
<path d="M7.18359 46.9531V47.6709H4.19629V46.9531H7.18359ZM4.85938 43.6035V51H4.09375V43.6035H4.85938ZM6.56152 47.4043V47.1855C6.56152 46.6523 6.6276 46.1602 6.75977 45.709C6.89193 45.2533 7.08105 44.859 7.32715 44.5264C7.57324 44.1891 7.86491 43.9294 8.20215 43.7471C8.54395 43.5602 8.92448 43.4668 9.34375 43.4668C9.76302 43.4668 10.1458 43.5602 10.4922 43.7471C10.8385 43.9294 11.1325 44.1891 11.374 44.5264C11.6201 44.859 11.807 45.2533 11.9346 45.709C12.0667 46.1602 12.1328 46.6523 12.1328 47.1855V47.4043C12.1328 47.9466 12.0667 48.4456 11.9346 48.9014C11.807 49.3525 11.6201 49.7467 11.374 50.084C11.1325 50.4167 10.8408 50.6764 10.499 50.8633C10.1572 51.0456 9.77441 51.1367 9.35059 51.1367C8.93132 51.1367 8.5485 51.0456 8.20215 50.8633C7.86035 50.6764 7.56641 50.4167 7.32031 50.084C7.07878 49.7467 6.89193 49.3525 6.75977 48.9014C6.6276 48.4456 6.56152 47.9466 6.56152 47.4043ZM7.32715 47.1924V47.418C7.32715 47.819 7.37044 48.2018 7.45703 48.5664C7.54362 48.9264 7.67122 49.2454 7.83984 49.5234C8.01302 49.8014 8.22493 50.0202 8.47559 50.1797C8.73079 50.3392 9.02246 50.4189 9.35059 50.4189C9.67415 50.4189 9.96126 50.3415 10.2119 50.1865C10.4671 50.027 10.679 49.806 10.8477 49.5234C11.0208 49.2409 11.1507 48.9196 11.2373 48.5596C11.3285 48.1995 11.374 47.8167 11.374 47.4111V47.1924C11.374 46.7959 11.3285 46.4176 11.2373 46.0576C11.1507 45.693 11.0208 45.3717 10.8477 45.0938C10.679 44.8112 10.4671 44.5879 10.2119 44.4238C9.96126 44.2598 9.67188 44.1777 9.34375 44.1777C9.01562 44.1777 8.72624 44.2598 8.47559 44.4238C8.22493 44.5879 8.01302 44.8112 7.83984 45.0938C7.67122 45.3717 7.54362 45.693 7.45703 46.0576C7.37044 46.4176 7.32715 46.7959 7.32715 47.1924ZM20.4245 47.5957H18.2712L18.2644 46.8916H20.0827C20.4473 46.8916 20.7504 46.8438 20.9919 46.748C21.238 46.6523 21.4226 46.5088 21.5456 46.3174C21.6732 46.1214 21.737 45.8822 21.737 45.5996C21.737 45.3763 21.7006 45.1849 21.6277 45.0254C21.5547 44.8613 21.4454 44.7269 21.2995 44.6221C21.1583 44.5173 20.9805 44.4398 20.7663 44.3896C20.5521 44.335 20.306 44.3076 20.028 44.3076H18.4831V51H17.7175V43.6035H20.028C20.4109 43.6035 20.7527 43.6445 21.0534 43.7266C21.3588 43.804 21.6185 43.9248 21.8327 44.0889C22.0469 44.2484 22.211 44.4512 22.3249 44.6973C22.4389 44.9434 22.4958 45.2373 22.4958 45.5791C22.4958 45.8024 22.4594 46.0143 22.3864 46.2148C22.3135 46.4108 22.2042 46.5885 22.0583 46.748C21.917 46.903 21.7439 47.0306 21.5388 47.1309C21.3337 47.2266 21.0967 47.2858 20.8279 47.3086L20.4245 47.5957ZM20.4177 51H18.0251L18.3396 50.2891H20.4245C20.7572 50.2891 21.0398 50.2367 21.2722 50.1318C21.5046 50.027 21.6801 49.8743 21.7986 49.6738C21.9216 49.4688 21.9831 49.2181 21.9831 48.9219C21.9831 48.653 21.9216 48.4206 21.7986 48.2246C21.6801 48.0241 21.5046 47.8691 21.2722 47.7598C21.0398 47.6504 20.7572 47.5957 20.4245 47.5957H18.8318L18.8454 46.8916H20.8825L21.1902 47.1582C21.5092 47.1855 21.7826 47.2858 22.0105 47.459C22.2429 47.6276 22.4229 47.8418 22.5505 48.1016C22.6781 48.3613 22.7419 48.6416 22.7419 48.9424C22.7419 49.2842 22.6872 49.585 22.5779 49.8447C22.4685 50.0999 22.3112 50.3118 22.1062 50.4805C21.9057 50.6491 21.6618 50.779 21.3747 50.8701C21.0876 50.9567 20.7686 51 20.4177 51ZM30.7397 51.1436C30.3295 51.1436 29.9513 51.0775 29.6049 50.9453C29.2631 50.8086 28.9669 50.6035 28.7162 50.3301C28.4702 50.0521 28.2787 49.7035 28.142 49.2842C28.0053 48.8604 27.937 48.3613 27.937 47.7871V46.9326C27.937 46.3219 28.0099 45.7979 28.1557 45.3604C28.3015 44.9183 28.4975 44.5583 28.7436 44.2803C28.9942 43.9977 29.2791 43.7926 29.5981 43.665C29.9171 43.5329 30.2543 43.4668 30.6098 43.4668C31.0154 43.4668 31.3709 43.5329 31.6762 43.665C31.9861 43.7972 32.2459 43.9977 32.4555 44.2666C32.6651 44.5355 32.8224 44.875 32.9272 45.2852C33.032 45.6908 33.0844 46.1715 33.0844 46.7275V47.3633H28.395V46.6523H32.3256V46.4609C32.3165 45.9779 32.2482 45.5677 32.1205 45.2305C31.9975 44.8887 31.8107 44.6289 31.56 44.4512C31.3139 44.2689 30.9995 44.1777 30.6166 44.1777C30.3341 44.1777 30.0743 44.2301 29.8373 44.335C29.6004 44.4352 29.3953 44.5947 29.2221 44.8135C29.0535 45.0322 28.9236 45.3171 28.8325 45.668C28.7459 46.0189 28.7026 46.4404 28.7026 46.9326V47.7871C28.7026 48.2383 28.7504 48.6302 28.8461 48.9629C28.9464 49.291 29.0877 49.5645 29.27 49.7832C29.4523 49.9974 29.671 50.1592 29.9262 50.2686C30.1814 50.3734 30.464 50.4258 30.7739 50.4258C31.1567 50.4258 31.4916 50.362 31.7787 50.2344C32.0659 50.1022 32.3211 49.904 32.5444 49.6396L32.9477 50.1455C32.811 50.3232 32.6424 50.4896 32.4418 50.6445C32.2413 50.7949 32.0021 50.9157 31.7241 51.0068C31.4461 51.098 31.1179 51.1436 30.7397 51.1436ZM42.6955 43.6035V44.3213H39.5783V43.6035H42.6955ZM43.3312 43.6035V51H42.5656V43.6035H43.3312ZM39.38 43.6035H40.1457L40.0021 47.0762C39.9748 47.6413 39.936 48.138 39.8859 48.5664C39.8358 48.9948 39.7629 49.3639 39.6671 49.6738C39.576 49.9837 39.4598 50.2367 39.3185 50.4326C39.1772 50.624 39.0086 50.7676 38.8127 50.8633C38.6213 50.9544 38.3979 51 38.1427 51H37.8693V50.248L38.0812 50.2412C38.2453 50.2275 38.3865 50.1865 38.505 50.1182C38.6281 50.0452 38.7329 49.929 38.8195 49.7695C38.9106 49.6055 38.9858 49.3958 39.0451 49.1406C39.1043 48.8809 39.1499 48.5641 39.1818 48.1904C39.2137 47.8167 39.241 47.3724 39.2638 46.8574L39.38 43.6035ZM50.0165 49.6533L53.2704 43.6035H54.036V51H53.2704V44.9502L50.0165 51H49.2577V43.6035H50.0165V49.6533ZM60.6529 45.0254V53.8438H59.8941V43.6035H60.5982L60.6529 45.0254ZM64.9459 46.96V47.6504C64.9459 48.2474 64.8935 48.7646 64.7887 49.2021C64.6839 49.6396 64.5289 50.002 64.3238 50.2891C64.1188 50.5762 63.8681 50.7904 63.5719 50.9316C63.2802 51.0729 62.9475 51.1436 62.5738 51.1436C62.2047 51.1436 61.8788 51.0798 61.5963 50.9521C61.3137 50.8245 61.0722 50.6445 60.8717 50.4121C60.6757 50.1751 60.5185 49.8994 60.4 49.585C60.2815 49.266 60.1995 48.915 60.1539 48.5322V46.2559C60.204 45.8366 60.2906 45.4561 60.4137 45.1143C60.5367 44.7725 60.6962 44.4785 60.8922 44.2324C61.0882 43.9863 61.3229 43.7972 61.5963 43.665C61.8743 43.5329 62.1933 43.4668 62.5533 43.4668C62.9361 43.4668 63.2757 43.5329 63.5719 43.665C63.8681 43.7926 64.1188 43.9977 64.3238 44.2803C64.5289 44.5583 64.6839 44.9206 64.7887 45.3672C64.8935 45.8092 64.9459 46.3402 64.9459 46.96ZM64.1871 47.6504V46.96C64.1871 46.4814 64.1507 46.0713 64.0777 45.7295C64.0048 45.3831 63.8932 45.096 63.7428 44.8682C63.5969 44.6403 63.4078 44.4717 63.1754 44.3623C62.9475 44.2484 62.6786 44.1914 62.3688 44.1914C62.0543 44.1914 61.7831 44.2507 61.5553 44.3691C61.332 44.4831 61.1451 44.6357 60.9947 44.8271C60.8489 45.0186 60.7304 45.2282 60.6393 45.4561C60.5527 45.6794 60.4889 45.9004 60.4479 46.1191V48.71C60.5253 49.0107 60.6415 49.2933 60.7965 49.5576C60.9514 49.8219 61.1588 50.0339 61.4186 50.1934C61.6783 50.3483 61.9996 50.4258 62.3824 50.4258C62.6923 50.4258 62.9589 50.3711 63.1822 50.2617C63.4101 50.1478 63.5969 49.9769 63.7428 49.749C63.8932 49.5166 64.0048 49.2272 64.0777 48.8809C64.1507 48.5345 64.1871 48.1243 64.1871 47.6504ZM74.721 46.8984V47.6162H71.1185V46.8984H74.721ZM71.3099 43.6035V51H70.5443V43.6035H71.3099ZM75.3157 43.6035V51H74.557V43.6035H75.3157ZM81.7754 46.2764H83.7647C84.2569 46.2764 84.6716 46.3789 85.0088 46.584C85.3506 46.7891 85.6081 47.0693 85.7813 47.4248C85.959 47.7757 86.0479 48.1768 86.0479 48.6279C86.0479 48.9606 85.9978 49.2728 85.8975 49.5645C85.7972 49.8516 85.6514 50.1022 85.46 50.3164C85.2686 50.5306 85.0293 50.6992 84.7422 50.8223C84.4597 50.9408 84.1315 51 83.7579 51H81.2627V43.6035H82.0284V50.2822H83.7715C84.1361 50.2822 84.4278 50.2048 84.6465 50.0498C84.8698 49.8949 85.0316 49.6921 85.1319 49.4414C85.2321 49.1908 85.2823 48.9264 85.2823 48.6484C85.2823 48.375 85.2321 48.113 85.1319 47.8623C85.0316 47.6071 84.8698 47.3997 84.6465 47.2402C84.4278 47.0762 84.1338 46.9941 83.7647 46.9941H81.7754V46.2764ZM88.1739 43.6035V51H87.4082V43.6035H88.1739ZM94.9412 49.6533L98.1951 43.6035H98.9607V51H98.1951V44.9502L94.9412 51H94.1824V43.6035H94.9412V49.6533ZM97.8259 40.9375H98.53C98.53 41.2839 98.4503 41.5915 98.2908 41.8604C98.1313 42.1247 97.9034 42.332 97.6072 42.4824C97.3155 42.6328 96.9646 42.708 96.5545 42.708C95.9392 42.708 95.4539 42.5439 95.0984 42.2158C94.7475 41.8831 94.572 41.457 94.572 40.9375H95.2761C95.2761 41.252 95.3718 41.5254 95.5632 41.7578C95.7546 41.9857 96.0828 42.0996 96.5476 42.0996C97.0079 42.0996 97.336 41.9857 97.532 41.7578C97.728 41.5254 97.8259 41.252 97.8259 40.9375ZM115.23 49.8652L117.629 43.6035H118.381L115.496 51H114.956L112.085 43.6035H112.83L115.23 49.8652ZM112.605 43.6035V51H111.839V43.6035H112.605ZM117.807 51V43.6035H118.572V51H117.807ZM128.204 49.6738V45.6475C128.204 45.3011 128.145 45.0208 128.026 44.8066C127.908 44.5879 127.735 44.4284 127.507 44.3281C127.279 44.2279 126.999 44.1777 126.666 44.1777C126.351 44.1777 126.071 44.2415 125.825 44.3691C125.584 44.4922 125.394 44.6654 125.258 44.8887C125.126 45.1074 125.059 45.3604 125.059 45.6475L124.301 45.6406C124.301 45.3581 124.358 45.0869 124.472 44.8271C124.586 44.5628 124.747 44.3304 124.957 44.1299C125.167 43.9248 125.417 43.763 125.709 43.6445C126.005 43.526 126.333 43.4668 126.693 43.4668C127.135 43.4668 127.527 43.5374 127.869 43.6787C128.211 43.82 128.477 44.0524 128.669 44.376C128.865 44.6995 128.963 45.1279 128.963 45.6611V49.4414C128.963 49.7012 128.979 49.9678 129.011 50.2412C129.047 50.5146 129.095 50.738 129.154 50.9111V51H128.348C128.297 50.8405 128.261 50.6377 128.238 50.3916C128.215 50.141 128.204 49.9017 128.204 49.6738ZM128.361 46.6797L128.382 47.3291H127.069C126.714 47.3291 126.402 47.3678 126.133 47.4453C125.864 47.5228 125.638 47.6344 125.456 47.7803C125.278 47.9261 125.144 48.0993 125.053 48.2998C124.962 48.5003 124.916 48.7282 124.916 48.9834C124.916 49.3115 124.968 49.5804 125.073 49.79C125.178 49.9951 125.331 50.1478 125.531 50.248C125.736 50.3438 125.98 50.3916 126.263 50.3916C126.636 50.3916 126.964 50.3187 127.247 50.1729C127.534 50.0225 127.769 49.8242 127.951 49.5781C128.133 49.3275 128.252 49.0632 128.307 48.7852L128.512 49.25C128.466 49.4596 128.382 49.6738 128.259 49.8926C128.136 50.1113 127.976 50.3164 127.78 50.5078C127.584 50.6947 127.352 50.8473 127.083 50.9658C126.814 51.0843 126.511 51.1436 126.174 51.1436C125.768 51.1436 125.413 51.0661 125.107 50.9111C124.807 50.7562 124.572 50.5215 124.403 50.207C124.239 49.8926 124.157 49.5052 124.157 49.0449C124.157 48.7031 124.214 48.3887 124.328 48.1016C124.447 47.8145 124.622 47.5661 124.854 47.3564C125.087 47.1423 125.379 46.9759 125.729 46.8574C126.08 46.7389 126.488 46.6797 126.953 46.6797H128.361ZM138.724 43.6035V44.3213H135.641V51H134.876V43.6035H138.724ZM147.604 49.6738V45.6475C147.604 45.3011 147.545 45.0208 147.426 44.8066C147.308 44.5879 147.134 44.4284 146.907 44.3281C146.679 44.2279 146.398 44.1777 146.066 44.1777C145.751 44.1777 145.471 44.2415 145.225 44.3691C144.983 44.4922 144.794 44.6654 144.658 44.8887C144.525 45.1074 144.459 45.3604 144.459 45.6475L143.701 45.6406C143.701 45.3581 143.758 45.0869 143.871 44.8271C143.985 44.5628 144.147 44.3304 144.357 44.1299C144.566 43.9248 144.817 43.763 145.109 43.6445C145.405 43.526 145.733 43.4668 146.093 43.4668C146.535 43.4668 146.927 43.5374 147.269 43.6787C147.611 43.82 147.877 44.0524 148.069 44.376C148.265 44.6995 148.363 45.1279 148.363 45.6611V49.4414C148.363 49.7012 148.379 49.9678 148.411 50.2412C148.447 50.5146 148.495 50.738 148.554 50.9111V51H147.747C147.697 50.8405 147.661 50.6377 147.638 50.3916C147.615 50.141 147.604 49.9017 147.604 49.6738ZM147.761 46.6797L147.782 47.3291H146.469C146.114 47.3291 145.801 47.3678 145.533 47.4453C145.264 47.5228 145.038 47.6344 144.856 47.7803C144.678 47.9261 144.544 48.0993 144.452 48.2998C144.361 48.5003 144.316 48.7282 144.316 48.9834C144.316 49.3115 144.368 49.5804 144.473 49.79C144.578 49.9951 144.73 50.1478 144.931 50.248C145.136 50.3438 145.38 50.3916 145.662 50.3916C146.036 50.3916 146.364 50.3187 146.647 50.1729C146.934 50.0225 147.169 49.8242 147.351 49.5781C147.533 49.3275 147.652 49.0632 147.706 48.7852L147.911 49.25C147.866 49.4596 147.782 49.6738 147.659 49.8926C147.536 50.1113 147.376 50.3164 147.18 50.5078C146.984 50.6947 146.752 50.8473 146.483 50.9658C146.214 51.0843 145.911 51.1436 145.574 51.1436C145.168 51.1436 144.813 51.0661 144.507 50.9111C144.206 50.7562 143.972 50.5215 143.803 50.207C143.639 49.8926 143.557 49.5052 143.557 49.0449C143.557 48.7031 143.614 48.3887 143.728 48.1016C143.846 47.8145 144.022 47.5661 144.254 47.3564C144.487 47.1423 144.778 46.9759 145.129 46.8574C145.48 46.7389 145.888 46.6797 146.353 46.6797H147.761ZM156.408 47.418H155.383V46.8506H156.347C156.711 46.8506 157.001 46.7982 157.215 46.6934C157.429 46.5885 157.584 46.4382 157.68 46.2422C157.775 46.0462 157.823 45.8184 157.823 45.5586C157.823 45.3079 157.771 45.0778 157.666 44.8682C157.566 44.6585 157.406 44.4899 157.188 44.3623C156.969 44.2347 156.677 44.1709 156.313 44.1709C156.03 44.1709 155.773 44.2324 155.54 44.3555C155.308 44.4785 155.119 44.6471 154.973 44.8613C154.831 45.0755 154.761 45.3216 154.761 45.5996H154.002C154.002 45.1621 154.109 44.7839 154.323 44.4648C154.538 44.1458 154.82 43.8997 155.171 43.7266C155.522 43.5534 155.902 43.4668 156.313 43.4668C156.668 43.4668 156.985 43.5124 157.263 43.6035C157.545 43.6947 157.785 43.8314 157.981 44.0137C158.177 44.1914 158.327 44.4102 158.432 44.6699C158.537 44.9297 158.589 45.2305 158.589 45.5723C158.589 45.8229 158.541 46.0599 158.445 46.2832C158.35 46.5065 158.208 46.7048 158.022 46.8779C157.835 47.0465 157.605 47.1787 157.331 47.2744C157.062 47.3701 156.755 47.418 156.408 47.418ZM155.383 47.0283H156.408C156.791 47.0283 157.124 47.0716 157.406 47.1582C157.693 47.2402 157.933 47.3633 158.124 47.5273C158.316 47.6914 158.459 47.8942 158.555 48.1357C158.65 48.3773 158.698 48.653 158.698 48.9629C158.698 49.3047 158.641 49.61 158.527 49.8789C158.413 50.1478 158.249 50.3734 158.035 50.5557C157.826 50.738 157.575 50.8792 157.283 50.9795C156.992 51.0798 156.67 51.1299 156.319 51.1299C155.932 51.1299 155.552 51.0501 155.178 50.8906C154.809 50.7311 154.503 50.485 154.262 50.1523C154.02 49.8151 153.899 49.3867 153.899 48.8672H154.658C154.658 49.1543 154.729 49.4163 154.87 49.6533C155.016 49.8903 155.212 50.0794 155.458 50.2207C155.709 50.362 155.994 50.4326 156.313 50.4326C156.673 50.4326 156.971 50.3711 157.208 50.248C157.45 50.1204 157.63 49.9473 157.748 49.7285C157.871 49.5098 157.933 49.2591 157.933 48.9766C157.933 48.6484 157.873 48.3841 157.755 48.1836C157.641 47.9785 157.466 47.8281 157.229 47.7324C156.996 47.6367 156.702 47.5889 156.347 47.5889H155.383V47.0283ZM165.055 49.6533L168.309 43.6035H169.075V51H168.309V44.9502L165.055 51H164.297V43.6035H165.055V49.6533ZM179.171 46.8984V47.6162H175.569V46.8984H179.171ZM175.76 43.6035V51H174.995V43.6035H175.76ZM179.766 43.6035V51H179.007V43.6035H179.766Z" fill="#919191"/>
<path d="M13.312 27.64C10.9867 27.64 8.94933 27.0747 7.2 25.944C5.45067 24.8133 4.096 23.2347 3.136 21.208C2.19733 19.1813 1.728 16.8453 1.728 14.2C1.728 11.5547 2.22933 9.21867 3.232 7.192C4.23467 5.16533 5.632 3.58667 7.424 2.456C9.23733 1.32533 11.3067 0.759998 13.632 0.759998C15.8293 0.759998 17.6853 1.31467 19.2 2.424L21.152 0.759998H21.824V8.696H21.152L19.04 3.416C17.504 2.136 15.7013 1.496 13.632 1.496C12.1387 1.496 10.7947 1.88 9.6 2.648C8.42667 3.416 7.49867 4.536 6.816 6.008C6.15467 7.48 5.824 9.22933 5.824 11.256V17.112C5.824 19.1387 6.13333 20.888 6.752 22.36C7.392 23.832 8.26667 24.9627 9.376 25.752C10.5067 26.52 11.8187 26.904 13.312 26.904C15.1467 26.904 16.5653 26.3387 17.568 25.208C18.592 24.0773 19.104 22.5627 19.104 20.664V17.688L16.128 17.24V16.536H25.696V17.24L22.72 17.688V20.664C22.72 21.88 22.3893 23.0213 21.728 24.088C21.0667 25.1333 20.032 25.9867 18.624 26.648C17.216 27.3093 15.4453 27.64 13.312 27.64ZM35.3828 27.32C33.8468 27.32 32.4494 26.968 31.1908 26.264C29.9321 25.5387 28.9294 24.5253 28.1828 23.224C27.4574 21.9013 27.0948 20.3973 27.0948 18.712C27.0948 17.0267 27.4574 15.5333 28.1828 14.232C28.9294 12.9307 29.9321 11.928 31.1908 11.224C32.4494 10.4987 33.8468 10.136 35.3828 10.136C36.9188 10.136 38.3161 10.4987 39.5748 11.224C40.8334 11.928 41.8254 12.9307 42.5508 14.232C43.2974 15.5333 43.6708 17.0267 43.6708 18.712C43.6708 20.3973 43.2974 21.9013 42.5508 23.224C41.8254 24.5253 40.8334 25.5387 39.5748 26.264C38.3161 26.968 36.9188 27.32 35.3828 27.32ZM35.3828 26.616C36.9614 26.616 38.1454 26.04 38.9348 24.888C39.7454 23.736 40.1508 22.2107 40.1508 20.312V17.112C40.1508 15.2133 39.7454 13.6987 38.9348 12.568C38.1454 11.416 36.9614 10.84 35.3828 10.84C33.8041 10.84 32.6094 11.416 31.7988 12.568C31.0094 13.6987 30.6148 15.2133 30.6148 17.112V20.312C30.6148 22.2107 31.0094 23.736 31.7988 24.888C32.6094 26.04 33.8041 26.616 35.3828 26.616ZM45.6713 27V26.36L48.0713 26.04V2.36L45.6713 2.04V1.4H51.2713V26.04L53.5113 26.36V27H45.6713ZM63.2115 27.32C61.6968 27.32 60.3635 26.968 59.2115 26.264C58.0595 25.5387 57.1635 24.536 56.5235 23.256C55.8835 21.9547 55.5635 20.44 55.5635 18.712C55.5635 16.984 55.8835 15.48 56.5235 14.2C57.1635 12.8987 58.0595 11.896 59.2115 11.192C60.3635 10.488 61.6968 10.136 63.2115 10.136C64.4488 10.136 65.5262 10.4667 66.4435 11.128C67.3608 11.768 68.0862 12.6533 68.6195 13.784V2.36L66.3795 2.04V1.4H71.8195V26.04L74.0595 26.36V27H68.6195V23.672C68.0862 24.8027 67.3608 25.6987 66.4435 26.36C65.5262 27 64.4488 27.32 63.2115 27.32ZM63.5315 26.52C64.4702 26.52 65.3128 26.2533 66.0595 25.72C66.8275 25.1653 67.4355 24.44 67.8835 23.544C68.3528 22.6267 68.5982 21.6347 68.6195 20.568V16.888C68.5982 15.8213 68.3528 14.84 67.8835 13.944C67.4355 13.0267 66.8275 12.3013 66.0595 11.768C65.3128 11.2133 64.4702 10.936 63.5315 10.936C60.5662 10.936 59.0835 12.9947 59.0835 17.112V20.312C59.0835 24.4507 60.5662 26.52 63.5315 26.52ZM78.4948 36.344C77.3854 36.344 76.4894 36.0667 75.8068 35.512C75.1241 34.9573 74.7828 34.2107 74.7828 33.272C74.7828 32.632 74.9641 32.1093 75.3268 31.704C75.7108 31.32 76.1801 31.128 76.7348 31.128C77.1401 31.128 77.5028 31.2133 77.8228 31.384C78.1428 31.5547 78.3988 31.8107 78.5908 32.152C78.2708 32.6 78.1108 33.0693 78.1108 33.56C78.1108 33.9867 78.2494 34.3387 78.5268 34.616C78.8041 34.8933 79.1561 35.032 79.5828 35.032C80.0948 35.032 80.5321 34.8613 80.8948 34.52C81.2788 34.1787 81.6201 33.5813 81.9188 32.728L83.8388 27.224L76.4148 11.416L74.2707 11.096V10.456H82.2388V11.096L79.9988 11.48L85.3428 22.904L89.1508 11.896L86.3988 11.096V10.456H92.1588V11.096L89.9828 11.896L82.8148 32.728C82.3668 33.9867 81.8228 34.904 81.1828 35.48C80.5641 36.056 79.6681 36.344 78.4948 36.344Z" fill="#E1A661"/>
<path d="M110.924 27.64C108.94 27.64 106.988 27.0747 105.068 25.944L102.348 27.32H101.644V19.096H102.348L105.1 25.048C106.871 26.3067 108.897 26.936 111.18 26.936C113.057 26.936 114.604 26.4453 115.82 25.464C117.057 24.4613 117.676 23.064 117.676 21.272C117.676 19.9707 117.281 18.9467 116.492 18.2C115.703 17.432 114.423 16.824 112.652 16.376L107.34 15C105.484 14.5093 104.087 13.6773 103.148 12.504C102.209 11.3093 101.74 9.90133 101.74 8.28C101.74 6.808 102.028 5.50667 102.604 4.376C103.201 3.224 104.065 2.33867 105.196 1.72C106.327 1.08 107.671 0.759998 109.228 0.759998C111.169 0.759998 112.908 1.09067 114.444 1.752L116.78 0.759998H117.484V7.288H116.78L114.476 2.616C112.876 1.848 111.137 1.464 109.26 1.464C107.404 1.464 105.943 1.944 104.876 2.904C103.809 3.84267 103.276 5.09067 103.276 6.648C103.276 7.8 103.649 8.70667 104.396 9.368C105.164 10.0293 106.284 10.552 107.756 10.936L113.484 12.44C115.34 12.9093 116.716 13.72 117.612 14.872C118.529 16.0027 118.988 17.7307 118.988 20.056C118.988 22.424 118.252 24.28 116.78 25.624C115.329 26.968 113.377 27.64 110.924 27.64ZM128.301 27.32C126.893 27.32 125.762 26.968 124.909 26.264C124.077 25.56 123.661 24.44 123.661 22.904V11.384L121.389 11.064V10.424H123.661V7.768L126.861 6.968V10.424H131.021V11.064L126.861 11.384V22.84C126.861 25.1013 127.671 26.232 129.293 26.232C129.634 26.232 129.954 26.1787 130.253 26.072C130.573 25.9653 130.818 25.8587 130.989 25.752C131.181 25.6453 131.298 25.5707 131.341 25.528L131.757 26.04C130.797 26.8933 129.645 27.32 128.301 27.32ZM140.602 27.32C139.066 27.32 137.668 26.968 136.41 26.264C135.151 25.5387 134.148 24.5253 133.402 23.224C132.676 21.9013 132.314 20.3973 132.314 18.712C132.314 17.0267 132.676 15.5333 133.402 14.232C134.148 12.9307 135.151 11.928 136.41 11.224C137.668 10.4987 139.066 10.136 140.602 10.136C142.138 10.136 143.535 10.4987 144.794 11.224C146.052 11.928 147.044 12.9307 147.77 14.232C148.516 15.5333 148.89 17.0267 148.89 18.712C148.89 20.3973 148.516 21.9013 147.77 23.224C147.044 24.5253 146.052 25.5387 144.794 26.264C143.535 26.968 142.138 27.32 140.602 27.32ZM140.602 26.616C142.18 26.616 143.364 26.04 144.154 24.888C144.964 23.736 145.37 22.2107 145.37 20.312V17.112C145.37 15.2133 144.964 13.6987 144.154 12.568C143.364 11.416 142.18 10.84 140.602 10.84C139.023 10.84 137.828 11.416 137.018 12.568C136.228 13.6987 135.834 15.2133 135.834 17.112V20.312C135.834 22.2107 136.228 23.736 137.018 24.888C137.828 26.04 139.023 26.616 140.602 26.616ZM151.114 26.36L153.354 26.04V11.384L151.114 11.064V10.424H156.554V12.888C157.898 11.0533 159.413 10.136 161.098 10.136C161.909 10.136 162.623 10.3493 163.242 10.776C163.861 11.1813 164.17 11.768 164.17 12.536C164.17 13.0907 163.989 13.56 163.626 13.944C163.263 14.3067 162.783 14.488 162.186 14.488C161.503 14.488 160.949 14.2213 160.522 13.688C160.757 13.3893 160.874 13.0693 160.874 12.728C160.874 12.3653 160.746 12.0773 160.49 11.864C160.255 11.6293 159.935 11.512 159.53 11.512C159.082 11.512 158.623 11.7253 158.154 12.152C157.685 12.5573 157.151 13.1973 156.554 14.072V26.04L159.114 26.36V27H151.114V26.36ZM173.918 27.32C172.339 27.32 170.91 26.968 169.63 26.264C168.35 25.5387 167.336 24.5253 166.59 23.224C165.843 21.9227 165.47 20.4187 165.47 18.712C165.47 17.0053 165.832 15.512 166.558 14.232C167.304 12.9307 168.296 11.928 169.534 11.224C170.792 10.4987 172.19 10.136 173.726 10.136C175.07 10.136 176.275 10.4347 177.342 11.032C178.408 11.6293 179.24 12.4613 179.838 13.528C180.435 14.5733 180.744 15.7787 180.766 17.144H168.99V20.312C168.99 22.1893 169.406 23.7147 170.238 24.888C171.091 26.04 172.318 26.616 173.918 26.616C175.39 26.616 176.691 26.2 177.822 25.368C178.952 24.536 179.646 23.4587 179.902 22.136H180.638C180.339 23.7147 179.582 24.9733 178.366 25.912C177.15 26.8507 175.667 27.32 173.918 27.32ZM177.246 16.344C177.246 14.488 176.958 13.112 176.382 12.216C175.806 11.2987 174.91 10.84 173.694 10.84C172.264 10.84 171.155 11.3413 170.366 12.344C169.576 13.3467 169.128 14.68 169.022 16.344H177.246Z" fill="#303030"/>
</svg>
