<svg width="16" height="16" viewBox="0 0 16 16" fill="none" xmlns="http://www.w3.org/2000/svg">
<g clip-path="url(#clip0_2801_37)">
<path d="M15.5645 11.7424L13.3317 9.50954C12.5342 8.71209 11.1786 9.0311 10.8596 10.0678C10.6204 10.7855 9.82292 11.1842 9.10522 11.0247C7.51033 10.626 5.35723 8.5526 4.9585 6.87797C4.71927 6.16024 5.19774 5.36279 5.91544 5.12359C6.95212 4.80461 7.2711 3.44895 6.47365 2.65151L4.2408 0.418659C3.60285 -0.139553 2.64591 -0.139553 2.0877 0.418659L0.572553 1.93381C-0.942594 3.5287 0.732042 7.75516 4.48004 11.5032C8.22803 15.2511 12.4545 17.0056 14.0494 15.4106L15.5645 13.8955C16.1228 13.2575 16.1228 12.3006 15.5645 11.7424Z" fill="#303030"/>
</g>
<defs>
<clipPath id="clip0_2801_37">
<rect width="16" height="16" fill="white"/>
</clipPath>
</defs>
</svg>
