<svg width="16" height="16" viewBox="0 0 16 16" fill="none" xmlns="http://www.w3.org/2000/svg">
<path fill-rule="evenodd" clip-rule="evenodd" d="M11.2 6.5C11.2 9.09574 9.09574 11.2 6.5 11.2C3.90426 11.2 1.8 9.09574 1.8 6.5C1.8 3.90426 3.90426 1.8 6.5 1.8C9.09574 1.8 11.2 3.90426 11.2 6.5ZM10.062 11.938C9.03902 12.6094 7.81512 13 6.5 13C2.91015 13 0 10.0899 0 6.5C0 2.91015 2.91015 0 6.5 0C10.0899 0 13 2.91015 13 6.5C13 8.1561 12.3806 9.66755 11.3609 10.8153L15.2728 14.7272L14 16L10 12L10.062 11.938Z" fill="#303030"/>
</svg>
