<svg width="20" height="18" viewBox="0 0 20 18" fill="none" xmlns="http://www.w3.org/2000/svg">
<path fill-rule="evenodd" clip-rule="evenodd" d="M11.6667 4.125C11.6667 2.67525 12.9725 1.5 14.5833 1.5C16.1942 1.5 17.5 2.67525 17.5 4.125C17.5 5.57474 16.1942 6.75 14.5833 6.75C13.769 6.75 13.0327 6.44967 12.5036 5.96538L8.22756 8.29699C8.29649 8.52074 8.33333 8.7565 8.33333 9C8.33333 9.21875 8.3036 9.43125 8.24758 9.6344L12.6009 11.9496C13.1212 11.5154 13.8178 11.25 14.5833 11.25C16.1942 11.25 17.5 12.4253 17.5 13.875C17.5 15.3247 16.1942 16.5 14.5833 16.5C12.9725 16.5 11.6667 15.3247 11.6667 13.875C11.6667 13.6563 11.6964 13.4438 11.7524 13.2407L7.39908 10.9255C6.87875 11.3596 6.18214 11.625 5.41667 11.625C3.80585 11.625 2.5 10.4497 2.5 9C2.5 7.55026 3.80585 6.375 5.41667 6.375C6.15373 6.375 6.82695 6.62107 7.34042 7.0269L11.7222 4.63759C11.6858 4.47181 11.6667 4.30041 11.6667 4.125ZM14.5833 3C13.893 3 13.3333 3.50368 13.3333 4.125C13.3333 4.74631 13.893 5.25 14.5833 5.25C15.2737 5.25 15.8333 4.74631 15.8333 4.125C15.8333 3.50368 15.2737 3 14.5833 3ZM5.41667 7.875C4.72632 7.875 4.16667 8.37869 4.16667 9C4.16667 9.62131 4.72632 10.125 5.41667 10.125C6.10701 10.125 6.66667 9.62131 6.66667 9C6.66667 8.37869 6.10701 7.875 5.41667 7.875ZM14.5833 12.75C13.893 12.75 13.3333 13.2537 13.3333 13.875C13.3333 14.4963 13.893 15 14.5833 15C15.2737 15 15.8333 14.4963 15.8333 13.875C15.8333 13.2537 15.2737 12.75 14.5833 12.75Z" fill="#C9C9C9"/>
</svg>
