<svg width="6" height="10" viewBox="0 0 6 10" fill="none" xmlns="http://www.w3.org/2000/svg">
<path d="M2.25 6.49006H3.46875V6.40909C3.4858 5.42898 3.76705 4.99006 4.49148 4.54261C5.25426 4.08239 5.72301 3.43466 5.72301 2.47585C5.72301 1.09091 4.67472 0.153409 3.1108 0.153409C1.67472 0.153409 0.524148 0.992897 0.46875 2.52699H1.7642C1.81534 1.62358 2.45881 1.22727 3.1108 1.22727C3.83523 1.22727 4.4233 1.70881 4.4233 2.46307C4.4233 3.09801 4.02699 3.54545 3.51989 3.8608C2.72727 4.34659 2.25852 4.82812 2.25 6.40909V6.49006ZM2.89347 9.08097C3.35795 9.08097 3.74574 8.7017 3.74574 8.22869C3.74574 7.7642 3.35795 7.38068 2.89347 7.38068C2.42472 7.38068 2.04119 7.7642 2.04119 8.22869C2.04119 8.7017 2.42472 9.08097 2.89347 9.08097Z" fill="#303030"/>
</svg>
